<?xml version="1.0" encoding="utf-8"?>
<!-- Generator: Adobe Illustrator 24.2.3, SVG Export Plug-In . SVG Version: 6.00 Build 0)  -->
<svg version="1.1" id="Ñëîé_1" xmlns="http://www.w3.org/2000/svg" xmlns:xlink="http://www.w3.org/1999/xlink" x="0px" y="0px"
	 viewBox="0 0 4000 2000" style="enable-background:new 0 0 4000 2000;" xml:space="preserve">
<style type="text/css">
	.st0{fill:#A9C8ED;}
	.st1{fill:#C5D7F9;}
	.st2{fill:#4F69B2;}
	.st3{fill:#F8FDFF;}
	.st4{fill:#1D3F70;}
	.st5{fill:#FFDE00;}
	.st6{fill:#163260;}
	.st7{fill:#234270;}
	.st8{fill:#0B274F;}
	.st9{fill:#F99370;}
	.st10{fill:#E57D61;}
	.st11{fill:#C16256;}
	.st12{fill:#8A9EDD;}
	.st13{fill:#3A72AA;}
	.st14{fill:#7689D6;}
	.st15{fill:#EB5648;}
	.st16{fill:#CE3932;}
	.st17{fill:#304EF2;}
	.st18{fill:#FFFFFF;}
</style>
<rect id="_x39_" x="0" y="0" class="st0" width="4000" height="2000"/>
<g>
	<path id="_x38_" class="st1" d="M332.3,1680.2c-6.7-15-13.2-30.4-19.4-45.6l19-2.6c6.1,15.1,12.6,30.3,19.3,45.3L332.3,1680.2z
		 M3740.8,1681.9l-19.4-1.2c2.6-15.5,5-31.2,7.1-46.4l19.4,1.1C3745.8,1650.6,3743.4,1666.3,3740.8,1681.9z M295.4,1588.8
		c-5.5-15.3-10.8-30.8-15.6-46l19.2-2.1c4.8,15.1,10,30.5,15.5,45.8L295.4,1588.8z M3753.9,1588.6l-19.5-0.9
		c1.8-15.5,3.3-31.2,4.6-46.5l19.5,0.7C3757.2,1557.3,3755.7,1573,3753.9,1588.6z M266.1,1496.5c-4.2-15.5-8.1-31.1-11.6-46.4
		l19.3-1.5c3.5,15.2,7.3,30.7,11.5,46.1L266.1,1496.5z M3761.8,1495.1l-19.5-0.5c0.9-15.6,1.5-31.3,1.9-46.6l19.5,0.3
		C3763.3,1463.6,3762.7,1479.4,3761.8,1495.1z M245.1,1403.4c-2.8-15.6-5.2-31.4-7.2-46.8l19.5-0.8c2,15.3,4.4,30.9,7.1,46.4
		L245.1,1403.4z M3744.6,1401.4c-0.1-15.6-0.5-31.3-1.2-46.6l19.5-0.2c0.6,15.4,1,31.2,1.2,46.9L3744.6,1401.4z M233.1,1309.8
		c-1.2-15.7-1.9-31.5-2.2-46.9l19.5,0c0.3,15.3,1,30.9,2.2,46.5L233.1,1309.8z M3740.6,1308.1c-1.2-15.6-2.8-31.3-4.6-46.5l19.5-0.7
		c1.8,15.4,3.4,31.1,4.6,46.8L3740.6,1308.1z M250.9,1216.3l-19.5-0.4c0.7-15.8,1.8-31.5,3.4-46.9l19.5,0.8
		C252.6,1185.1,251.5,1200.7,250.9,1216.3z M3729.6,1215.1c-2.5-15.6-5.3-31.2-8.5-46.3l19.4-1.3c3.1,15.2,6,30.9,8.5,46.7
		L3729.6,1215.1z M260.8,1123.6l-19.4-1.3c2.8-15.7,6.1-31.4,9.9-46.6l19.3,1.8C266.8,1092.5,263.5,1108,260.8,1123.6z
		 M3710.6,1122.6c-4-15.5-8.3-31-12.9-46l19.2-2c4.7,15.1,9,30.7,13,46.3L3710.6,1122.6z M1402.7,1104.9
		c-27.1-2.7-46.7-10.2-73.7-23.1l12.4-8.9c23.7,11.2,40.9,18,63.5,20.5L1402.7,1104.9z M1470.6,1077.8l-17.3-5.4
		c9-10.3,17-24.7,23.8-42.8l19,2.6C1488.8,1051.5,1480.5,1066.4,1470.6,1077.8z M1271.9,1048.2c-15.5-10.4-32-22.4-50.5-36.6
		l15.4-7.1c18.3,14,34.5,25.8,49.7,36L1271.9,1048.2z M283.9,1031.8l-19.1-2.3c5.2-15.5,11-30.9,17.3-45.8l18.9,2.9
		C294.8,1001.3,289,1016.5,283.9,1031.8z M3682.2,1031c-5.7-15.4-11.8-30.6-18.2-45.3l18.9-2.8c6.5,14.8,12.7,30.2,18.4,45.7
		L3682.2,1031z M1509.5,985.6l-19.3-1.6c3.1-13.8,5.9-29,8.5-46.3l19.4,1.1C1515.4,956.3,1512.6,971.6,1509.5,985.6z M1173.8,973.8
		c-15.8-12.9-32.1-26.4-46.2-38.2l15.8-6.7c14.1,11.7,30.4,25.3,46.1,38.1L1173.8,973.8z M2602.5,982.8c-15.2-0.1-30.1-2.9-44.3-8.3
		l10.5-9.8c21.3,8.2,42.3,8.3,65,2.1l8.3,10.5C2628.6,981.1,2615.3,982.9,2602.5,982.8z M322.1,941.9l-18.6-3.5
		c7.9-15,16.5-30,25.6-44.4l18.3,4.2C338.4,912.4,329.9,927.1,322.1,941.9z M2706.1,947.4l-14.3-8c14.9-9.4,30.8-21.1,48.7-35.6
		l15.8,6.9C2737.9,925.7,2721.5,937.7,2706.1,947.4z M2503,938c-12.5-11.7-25-25.4-38-42l17.7-4.8c12.6,16.1,24.6,29.4,36.7,40.6
		L2503,938z M3642.7,940.8c-7.8-15.1-16-30-24.6-44.2l18.4-3.9c8.7,14.4,17.1,29.4,24.9,44.7L3642.7,940.8z M1081.6,897.5
		c-17.8-14.6-32.5-26.7-46.6-37.8l15.6-6.9c14.1,11.2,28.9,23.3,46.8,38L1081.6,897.5z M1524.3,891.9l-19.5-0.9
		c1.6-13.6,3.2-28.9,4.9-46.7l19.5,0.8C1527.5,863,1525.9,878.3,1524.3,891.9z M376.9,855.4l-17.8-4.8
		c10.8-14.4,22.3-28.5,34.6-42.2l17.3,5.5C398.9,827.4,387.5,841.3,376.9,855.4z M2801.3,872.2l-16.3-6.5c14-12.4,28.4-25.6,43-39
		l16.4,6.4C2829.7,846.5,2815.3,859.7,2801.3,872.2z M2433.9,852.5c-8.7-13.3-17.8-27.7-27.6-44.2l18.4-3.8
		c9.8,16.4,18.7,30.7,27.4,43.8L2433.9,852.5z M3589.7,853.3c-10.4-14.6-21.4-28.8-32.7-42.2l17.4-5.1
		c11.5,13.6,22.7,28.1,33.2,42.9L3589.7,853.3z M987.1,822.5c-17.6-13.2-34-25-50.1-35.9l14.7-7.6c16.3,11.1,32.9,23,50.7,36.4
		L987.1,822.5z M1533.6,798.3l-19.5-0.7c1.4-15.5,2.8-31,4.3-46.8l19.5,0.7C1536.5,767.3,1535,782.8,1533.6,798.3z M2887.4,794.2
		l-16.2-6.5c16.4-14.6,31.1-27.2,44.9-38.5l15.8,6.8C2918.2,767.3,2903.7,779.8,2887.4,794.2z M449.9,774l-16.4-6.4
		c15.4-14.2,31.3-27,47.3-38l14.9,7.6C480.2,747.9,464.8,760.3,449.9,774z M2380.6,763.8c-8.8-15.7-17.5-31.3-24.8-44.6l18.5-3.5
		c7.3,13.2,16,28.9,24.8,44.5L2380.6,763.8z M883.5,752.6c-19.9-11.7-39.4-22-58.1-30.7l12-9.1c19.3,9,39.4,19.6,59.8,31.6
		L883.5,752.6z M3519.4,770.4c-13.9-13.7-28.5-26.6-43.3-38.5l15.6-6.9c15.2,12.2,30.2,25.4,44.4,39.4L3519.4,770.4z M550.5,706
		l-11.8-9.3c23.4-10.4,47.7-17.9,72.2-22.2l5.6,11.1C594.3,689.6,572.1,696.4,550.5,706z M2979.2,719.4l-15.1-7.4
		c18.4-13.3,35.8-24.7,53.3-35l13.7,8.3C3014.1,695.2,2997.1,706.4,2979.2,719.4z M1542.7,704.8l-19.5-0.8
		c1.8-16.9,3.6-32.2,5.5-46.8l19.5,1C1546.2,672.7,1544.5,688,1542.7,704.8z M761.1,696.9c-24.3-7.4-48.2-12.1-71.1-14.2l2.7-11.5
		c25,2.2,50.9,7.4,77.1,15.3L761.1,696.9z M3426.1,696.7c-18.7-11.6-38.1-21.8-57.6-30.4l11.6-9.3c20.4,9,40.6,19.7,60.1,31.7
		L3426.1,696.7z M2331.1,674.6c-9.6-17.3-17.5-31.5-24.9-44.5l18.5-3.6c7.4,13,15.3,27.2,24.9,44.6L2331.1,674.6z M3089.7,656
		l-11.1-9.6c24.1-9.8,48.4-17.1,72.2-21.5l5.9,11.1C3134.7,640.1,3112.2,646.9,3089.7,656z M3302.7,643.3
		c-24.1-6.2-48.6-10.2-72.6-11.7l1.9-11.5c26.1,1.6,52.4,5.9,78.4,12.6L3302.7,643.3z M1554.7,611.6l-19.4-1.2
		c2.5-16.3,5.3-32,8.2-46.7l19.4,1.4C1559.9,579.8,1557.2,595.4,1554.7,611.6z M2280.6,585.8c-9.3-15.7-18.1-30.1-26.9-43.9l18.3-4
		c8.8,13.9,17.6,28.4,27,44.2L2280.6,585.8z M1573.1,518.9l-19.3-1.8c4.1-16.2,8.5-31.8,13.2-46.4l19.2,2.3
		C1581.5,487.4,1577.1,502.8,1573.1,518.9z M2225.1,498.3c-10.4-15.1-20.9-29.5-31.1-42.9l17.7-4.8c10.4,13.5,21,28.1,31.4,43.3
		L2225.1,498.3z M1603,427.7l-18.9-2.9c6.9-16.2,14.5-31.4,22.6-45.2l18.4,3.9C1617.3,396.9,1609.8,411.8,1603,427.7z M2159.6,413.5
		c-12.7-14.5-25.8-28.1-38.7-40.4l16.5-6.1c13.2,12.6,26.5,26.4,39.4,41.2L2159.6,413.5z M1654.8,341.1l-17.5-5.3
		c12.9-15.4,27.2-28.9,42.5-40.3l15.3,7.3C1680.7,313.6,1667.1,326.4,1654.8,341.1z M2076.4,335.1c-17-12.8-34.5-24.2-52.1-33.8
		l13.2-8.5c18.4,10,36.6,21.9,54.2,35.2L2076.4,335.1z M1749.8,273.1l-10.5-9.9c23.2-8.6,48.7-14.2,75.8-16.5l2.9,11.5
		C1793.6,260.3,1770.6,265.3,1749.8,273.1z M1963,274.6c-22.7-7.4-46.3-12.6-70.3-15.3l3.5-11.4c26,2.9,51.6,8.5,76.1,16.6
		L1963,274.6z"/>
	<g id="_x37_">
		<path class="st2" d="M1164.1,1383.4v340.8c0,11.6-2.3,22.6-6.3,32.4H852c-4.1-9.9-6.3-20.9-6.3-32.4v-340.8
			c0-43.2,31.5-78.3,70.3-78.3h177.9C1132.6,1305.2,1164.1,1340.2,1164.1,1383.4z"/>
		<path class="st3" d="M1459.6,1717.5c-16.3,0-32.1-8.4-40.8-23.5l-235.6-407c-13-22.5-5.4-51.4,17.2-64.4
			c22.5-13,51.4-5.4,64.4,17.2l235.6,407c13,22.5,5.4,51.4-17.2,64.4C1475.7,1715.4,1467.6,1717.5,1459.6,1717.5z"/>
		<path class="st4" d="M1296.6,1263.4c-0.4,95.1-145,95-145.4,0C1151.7,1168.3,1296.2,1168.3,1296.6,1263.4z"/>
		<rect x="996.2" y="677.9" class="st3" width="17.3" height="105.3"/>
		<path class="st2" d="M960,793.3c0.6-10.3-4.1-33,12.5-32.7c0,0,64.6,0,64.6,0c6.9,0,12.5,5.6,12.5,12.5
			c-0.6,10.3,4.1,33-12.5,32.7c0,0-64.6,0-64.6,0C965.7,805.8,960,800.2,960,793.3z"/>
		<path class="st2" d="M786.3,1052.6c-13.6-0.5-41.9,4.7-41.5-16.8c0,0,0-91.2,0-91.2c-0.4-21.4,27.9-16.4,41.5-16.8
			c9.2,0,16.8,7.5,16.8,16.8v91.2C803.1,1045,795.5,1052.6,786.3,1052.6z"/>
		<path class="st2" d="M1248.2,1052.6c-13.6-0.5-41.9,4.7-41.5-16.8c0,0,0-91.2,0-91.2c-0.4-21.4,27.9-16.4,41.5-16.8
			c9.2,0,16.8,7.5,16.8,16.8v91.2C1265,1045,1257.4,1052.6,1248.2,1052.6z"/>
		<path class="st3" d="M936.5,833.1c0.9-15.7-6.2-50.4,19.1-49.9c0,0,98.6,0,98.6,0c25.2-0.5,18.3,34.2,19.1,49.9
			c0,10.5-8.6,19.1-19.1,19.1h-98.6C945.1,852.2,936.5,843.6,936.5,833.1z"/>
		<path class="st2" d="M989.5,1094.3c15.7,0.9,50.4-6.2,49.9,19.1c0,0,0,98.6,0,98.6c0.5,25.2-34.2,18.3-49.9,19.1
			c-10.5,0-19.1-8.6-19.1-19.1v-98.6C970.4,1102.9,979,1094.3,989.5,1094.3z"/>
		<path class="st3" d="M1137.3,1162.7H872.5c-54.2,0-98.6-44.3-98.6-98.6c4.3-84.1-31.4-243.7,98.6-246.5c0,0,264.8,0,264.8,0
			c54.2,0,98.6,44.3,98.6,98.6C1231.5,1000.4,1267.2,1160,1137.3,1162.7z"/>
		<path class="st4" d="M1111.8,1105.2H897.9c-36.1,0-65.7-29.6-65.7-65.7c2.9-56.1-20.9-162.5,65.7-164.3c0,0,213.9,0,213.9,0
			c36.1,0,65.7,29.6,65.7,65.7C1174.6,997,1198.5,1103.4,1111.8,1105.2z"/>
		<path class="st2" d="M1037.6,677.9c-0.2,42.8-65.3,42.8-65.5,0C972.3,635.1,1037.4,635.1,1037.6,677.9z"/>
		<path class="st5" d="M960.9,990.2c-0.2,35-53.3,35-53.5,0C907.6,955.2,960.8,955.2,960.9,990.2z"/>
		<path class="st5" d="M1102.3,990.2c-0.2,35-53.3,35-53.5,0C1049,955.2,1102.2,955.2,1102.3,990.2z"/>
		<path class="st4" d="M1164.1,1370.3v207.5H845.7v-207.5c0-36,31.5-65.2,70.3-65.2h177.8
			C1132.6,1305.2,1164.1,1334.4,1164.1,1370.3z"/>
		<path class="st3" d="M1265,1285.9v166.7c0,41.9-34,75.9-75.9,75.9H820.7c-41.9,0-75.9-34-75.9-75.9v-166.7
			c0-41.9,34-75.9,75.9-75.9h368.4C1231,1210,1265,1244,1265,1285.9z"/>
		<path class="st4" d="M831.3,1242.1c-0.4,95.1-145,95-145.4,0C686.3,1147.1,830.9,1147.1,831.3,1242.1z"/>
		<path class="st3" d="M522.9,1696.3c-35.1,0.8-59.4-40.5-40.7-70.7c0,0,235.6-407,235.6-407c31.8-53,111.7-7,81.6,47.2
			c0,0-235.6,407-235.6,407C555,1687.8,539.2,1696.3,522.9,1696.3z"/>
		<path class="st4" d="M595.7,1649.1c-0.4,95.1-145,95-145.4,0C450.7,1554.1,595.2,1554.1,595.7,1649.1z"/>
		<path class="st3" d="M953.5,1601.3l-72.9,0.1l15.3-16.8c20.9-22.3-14.5-54.7-34.8-31.8c0,0-44.4,48.7-44.4,48.7l-291.9,0.5
			c-26,0-47.1,21.1-47.1,47.1c0,26,21.1,47.1,47.1,47.1l428.8-0.1C1016,1695,1015.8,1602.2,953.5,1601.3z"/>
		<polygon class="st6" points="1807.1,1669.7 1277.1,1669.7 1382.6,1281.2 1909.4,1281.2 		"/>
		<rect x="1277.1" y="1667.8" class="st7" width="530" height="26.4"/>
		<polygon class="st8" points="1390.6,1281.2 1371.6,1281.2 1268.3,1667.8 1016.8,1667.8 1016.8,1694.2 1285.9,1694.2 
			1285.9,1670.6 		"/>
	</g>
	<path class="st4" d="M3089.4,1069.4c0,0-98.3,0-193.7,96.3c-79.9,80.6-152.2,209.8-152.2,209.8l258.3,41.2
		C3001.8,1416.6,3101.4,1128.8,3089.4,1069.4z"/>
	<path class="st4" d="M3520.4,1692.8c-1.3,21.1-3.5,42.4-6.6,63.9H2872c-1.8-17.8-2.1-39.6-1.2-63.9c4.2-113,34.8-280.8,67.8-364.1
		c43.8-112.9,123.2-204.6,185.6-259.5c0,0,97.8-6.7,97.9-6.7C3385.9,1158,3538.1,1402.8,3520.4,1692.8z"/>
	<path class="st4" d="M2930.7,1354.2c1.5,0,2.9-1.1,3.3-2.6c9.6-46.6,43.1-86.2,37.3-92.4c-8.4-1.8-31,46.3-44,90.8
		C2926.8,1352.1,2928.5,1354.2,2930.7,1354.2z"/>
	<path class="st9" d="M3309.6,1309.8c66.3,53.3,215.4,166.1,165,256.2c-64.2,36.7-179,35.1-265.6,47.4c-25,1.7-28.5,39.4-4.7,46
		c81.6,24.1,166.4,39.2,252.2,34.8c38.8-2.8,81.2-11.4,111-40.2c39.6-39.6,62.7-99.3,58.5-155.7c-12.1-135.8-116.4-239.9-220-316.1
		C3318.9,1115.5,3221.2,1245.2,3309.6,1309.8z"/>
	<path class="st4" d="M3287.6,1296.3c163.9,201,184.1,232.3-51.5,314.5c25.5,30.2,8.2,59.7,8.2,59.7
		c659.6,193.4,445.2-619.5-22.2-608.1C3225.3,1113.6,3248.9,1242.8,3287.6,1296.3z"/>
	<path class="st9" d="M3068.7,1666.9c0,0,27.7-83.8,142.7-53.6l22.2,53.7L3068.7,1666.9z"/>
	<path class="st10" d="M3074.9,1665.3c3.4-0.1,30.9-29.4,71.9-33.7c1.8-0.2,3-1.8,2.9-3.5
		C3129.9,1615.4,3054.5,1665.5,3074.9,1665.3z"/>
	<path class="st10" d="M3105.8,1666.4c30.9-11.5,33.7-13.3,56.6-17.6c-0.2-1.6-0.8-4.8-1.1-6.3c-24,5-24,5-56,17.5
		C3101.5,1660.7,3102,1666.4,3105.8,1666.4z"/>
	<path class="st4" d="M3271.1,1678.8c-9-2.7-18.9-5.9-26.8-8.3c0,0,17.3-29.5-8.2-59.7c0,0,12.7-4.1,30.8-10.5
		C3266.9,1600.3,3298.1,1640.3,3271.1,1678.8z"/>
	<path class="st4" d="M3266.3,1607.5c-4.9,0.7,154.6-51,152.6-118.5c0-78.8-129-194-134.5-198.8c-3.3-2.9-7.9,2.2-4.5,5.1
		c-0.3,1.5,187.1,162.5,115.5,231.7C3342,1579.3,3246.8,1600,3266.3,1607.5z"/>
	<path class="st4" d="M3323.8,1692.5c4,0.1,4.7-6.1,0.7-6.8c-28.8-5.7-55-14.9-55.2-15C3249.9,1675.8,3294.2,1686.3,3323.8,1692.5z"
		/>
	<path class="st4" d="M3087.1,1132.7c27.4,66.5,162.7,26.5,184-66.8c0,0,0,0,0,0c-30.1-4-49-3.4-49-3.4c0,0-97.8,6.7-97.9,6.7
		c-11.9-0.6-23.5-0.5-34.8,0.2C3077.5,1085.7,3081.5,1119.1,3087.1,1132.7z"/>
	<path class="st9" d="M3124.2,1069.2c-11.6-51.7-11.4-128.1-7.4-160c6.7-62.7,106.4-49.3,96.6,12.7c-3.3-1.6-1.6,110.5,8.6,140.6
		C3234.7,1107.8,3085.8,1167.3,3124.2,1069.2z"/>
	<path class="st10" d="M3213.8,916.7c-0.1,1.7-0.2,3.5-0.4,5.2c-2.4-1.3-2.2,60.7,2.4,105.2c-39.8,23.5-87.3,20-96,19.2
		c-6.9-56.3-7.2-108.1-2.3-141.3C3129.7,848.4,3215.5,858.9,3213.8,916.7z"/>
	<path class="st4" d="M3051,841.2c0,0,0.8-50.7,16.5-85.7l29,14.1L3051,841.2z"/>
	<path class="st9" d="M3050.5,989.5c34.5,34.9,87.7,44.7,130.2,35.5c13.3-2.7,25.9-7.4,37.1-14.4l0,0c3.8-2.4,7.4-5,10.8-7.8l0.1,0
		c161.4-163.2-58.9-429.2-158.6-196.4C3036.3,871.9,2977.4,907.2,3050.5,989.5z"/>
	<path class="st11" d="M3119.9,857.3c-1.6-3.2-0.4-7.1,2.8-8.7c3.2-1.6,7.1-0.4,8.7,2.8c1.6,3.2,0.4,7.1-2.8,8.7
		C3125.4,861.7,3121.5,860.5,3119.9,857.3z"/>
	<path class="st11" d="M3065.3,848.3c-1.6-3.2-0.4-7.1,2.8-8.7c3.2-1.6,7.1-0.4,8.7,2.8c1.6,3.2,0.4,7.1-2.8,8.7
		C3070.8,852.7,3066.9,851.5,3065.3,848.3z"/>
	<path class="st11" d="M3082.3,904.4c3.8,0.4,7.7,0.2,11-0.8c1.3-0.4,2-1.8,1.6-3.1c-0.4-1.3-1.8-2-3.1-1.6
		c-8.2,2.7-19.9-1.4-21.5-5.1c-0.6-1.3,1.2-2.6,2.8-3.5c13.9-7.6,23.2-33.9,23.5-35c0.4-1.3-0.2-2.7-1.5-3.1
		c-1.3-0.5-2.7,0.2-3.1,1.5c-0.1,0.3-9,25.7-21.3,32.3c-6.7,3.6-5.7,8-4.9,9.7C3067.7,900.1,3074.9,903.5,3082.3,904.4z"/>
	<path class="st10" d="M3077.5,790.2c35.1-18.6,99-1.9,130.3-2.2c0,0-6.5,53.6,47.6,91.6c4.7,49.2,12.8,70.7-37.6,130.9l0,0
		c3.8-2.4,7.4-5,10.8-7.8l0.1,0C3384.1,847.1,3180.6,582.6,3077.5,790.2z"/>
	<path class="st4" d="M3050.7,683.6c20.1-39.9,79.9-61.6,131.8-12.5c39.9,37.8,82.9,37.4,82.1,77.3c79.9,36.1,40.5,124.1,40.5,124.1
		l-40-4.6c-45.8-36.9-44.5-91.3-44.5-91.3l0,0c-10.2,0.5-20.9,0.1-30.4-2.3c-29.5-7.5-73.1-11-106.3,1.3
		C3050.5,787.9,3028.2,728.1,3050.7,683.6z"/>
	<path class="st9" d="M3310.8,904.8c-4.3,20.6-21.2,34.4-37.7,31c-16.6-3.4-26.5-22.9-22.2-43.5c4.3-20.6,21.2-34.4,37.7-31
		C3305.1,864.7,3315.1,884.2,3310.8,904.8z"/>
	<path class="st11" d="M3271.4,877.6c0.6-0.2,15.8-6.1,24.4,1.7c2.2,2,3.6,4.7,4.5,8c0,0,0,0,0,0c0.1,0.3,0.2,0.6,0.3,0.9
		c0,0,0,0,0,0c0,0,0,0,0,0c1.2,6.2,0.3,14.5-2.8,24.8c-0.4,1.1-1.5,1.9-2.6,1.7c-0.1,0-0.3,0-0.4-0.1c-1.3-0.4-2-1.8-1.6-3.1
		c2.5-8.4,3.5-15.2,3-20.3c-14.1,2.6-21.2,18.4-21.3,18.6c-0.4,1-1.5,1.6-2.5,1.5c-0.2,0-0.4-0.1-0.7-0.2c-1.3-0.5-1.8-2-1.3-3.2
		c0.3-0.8,8-18.5,24.6-21.6c-0.6-1.4-1.3-2.6-2.3-3.5c-6.3-5.8-19.1-0.8-19.2-0.8c-1.3,0.5-2.7-0.1-3.2-1.4
		C3269.6,879.5,3270.2,878.1,3271.4,877.6z"/>
	<polygon class="st6" points="2477.4,1668.8 3009.6,1668.8 2903.7,1278.7 2374.6,1278.7 	"/>
	<rect x="2477.4" y="1666.9" class="st7" width="532.2" height="26.5"/>
	<polygon class="st8" points="2895.7,1278.7 2914.7,1278.7 3018.5,1666.9 3271.1,1666.9 3271.1,1693.4 3000.8,1693.4 3000.8,1669.7 
			"/>
	<path class="st11" d="M3150.7,846.5c-0.8,0-1.7-0.4-2.2-1.2c-0.4-0.5-9.3-13.3-32.9-13.6c-1.4,0-2.6-1.2-2.6-2.7
		c0-1.4,1.2-2.6,2.6-2.6c0,0,0,0,0,0c26.5,0.3,36.8,15.3,37.2,15.9c0.8,1.2,0.5,2.8-0.7,3.6C3151.8,846.3,3151.2,846.5,3150.7,846.5
		z"/>
	<path class="st11" d="M3091.3,828c-0.3,0-0.7-0.1-1-0.2c-0.2-0.1-13.3-5.2-26.2,0c-1.3,0.5-2.9-0.1-3.4-1.4
		c-0.5-1.3,0.1-2.9,1.4-3.4c14.9-6,29.5-0.2,30.1,0c1.3,0.5,2,2.1,1.4,3.4C3093.3,827.4,3092.3,828,3091.3,828z"/>
	<path class="st11" d="M3087.8,923.5c-2.7,0-5.6-0.2-8.7-0.7c-1.4-0.2-2.4-1.6-2.2-3c0.2-1.4,1.6-2.4,3-2.2
		c23.2,3.8,37.2-10.5,37.3-10.6c1-1,2.7-1.1,3.7-0.1c1,1,1.1,2.7,0.1,3.7C3120.5,911.2,3108.4,923.5,3087.8,923.5z"/>
	<path id="_x35_" class="st12" d="M3835.1,1729.2c0,20.1-13.3,36.4-29.6,36.4h-3611c-8.2,0-15.6-4.1-20.9-10.7
		c-5.4-6.6-8.7-15.7-8.7-25.7c0-20.1,13.3-36.4,29.6-36.4h3611c8.2,0,15.6,4.1,20.9,10.7C3831.8,1710,3835.1,1719.1,3835.1,1729.2z"
		/>
	<g id="_x34_">
		<path class="st12" d="M2187.9,1505.1h-48C2004.5,1009.6,2327.5,1110.9,2187.9,1505.1z"/>
		<path class="st13" d="M2187.9,1505.1c0,0-35.9,8.5-34.5,0c37.2-216.2,2-334.6,2-334.6C2286.2,1161.7,2187.9,1505.1,2187.9,1505.1z
			"/>
		<path class="st14" d="M2321.2,1288.9c-7.3,79.6-56.9,150.8-98.1,216.2h-54.8c4.9-75.4,17.1-157.1,59-222.1
			C2246.8,1236.4,2321.4,1225,2321.2,1288.9z"/>
		<path class="st12" d="M2321.2,1288.9c0,2.9-0.9,9.2-0.9,9.2c-39-6.2-61.8-25-74.1-39.7c2.2-2.6,4.4-4.3,6.8-6
			C2264.3,1265.7,2285.6,1283.1,2321.2,1288.9z"/>
		<path class="st12" d="M2312.8,1334.8c-0.9,2.9-1.9,5.8-2.9,8.7c-55.7-6.8-80.2-38.7-88-51.8c1.7-2.9,3.5-5.8,5.4-8.7
			C2232.5,1293.2,2257.4,1328.8,2312.8,1334.8z"/>
		<path class="st12" d="M2297.8,1373.7c-1.3,2.9-2.6,5.8-3.9,8.6c-53-2.4-81.5-27.8-94.1-44.5c1.3-3.4,2.6-6.8,4-10.1
			C2214.1,1343.6,2245.4,1371.9,2297.8,1373.7z"/>
		<path class="st12" d="M2273.8,1422.2c-1.6,2.9-3.1,5.7-4.7,8.4c-44-3.2-71-21.8-85.7-38c0.5-3.8,2.3-6.6,3.1-9.9
			C2202.6,1399.1,2227.5,1419.2,2273.8,1422.2z"/>
		<path class="st12" d="M2245.8,1469.6c-1.8,2.9-3.6,5.7-5.3,8.5c-32.8-5.3-54-19.7-66.6-32c0.5-3.8,1.1-7.7,1.7-11.6
			C2187,1446.5,2211.7,1464.6,2245.8,1469.6z"/>
		<path class="st14" d="M2091.2,1505.1H2037C1866.5,1278,2077.5,1234.2,2091.2,1505.1z"/>
		<path class="st12" d="M2091.2,1505.1h-32.9c-59.3-82.7-72.2-150.5-72.3-183.3C2063.3,1280.5,2091.3,1504.9,2091.2,1505.1z"/>
		<path class="st13" d="M2148.7,1505h-66.6c1.2,2.8-21.2-39.3-29.7-59.7h0c-18.5-43.5-42.5-102.1-33-149
			c5.3-37.1,58.2-51.7,83.4-26.4C2152.3,1313.9,2150.8,1459.4,2148.7,1505z"/>
		<path class="st14" d="M2148.4,1425.9c-0.3-4.6-0.5-9.6-1-14.3l-36.7,50.8l-14.7-58.3l41.4-62c-0.9-4.3-2-8.4-3.2-12.5l-41.2,62.6
			l-17.4-69.5l33.4-46.2c-2-2.3-4.1-4.5-6.3-6.4l-30,41.1l-12.8-53c-3.2,0.6-6.4,1.4-9.3,2.4l13.5,53.6l-44.8-17.2
			c-0.7,2.7-1.2,5.6-1.5,8.5l49,19.6l17.7,70.3l-59.4-25.3c1,3.8,2.1,7.6,3.2,11.4l59,25l14.8,58.8l-49.6-20
			c1.7,4.3,3.7,8.1,5.4,11.9l47,19.1c2.4,4,5,34.1,11.9,33.3c11,0.5-3.7-31.3-3.1-35.7L2148.4,1425.9
			C2148.4,1425.9,2148.4,1425.9,2148.4,1425.9z"/>
		<rect x="2036.4" y="1505.1" class="st15" width="186.2" height="187.9"/>
		<path class="st16" d="M2222.6,1505.1V1693h-186.2C2036.4,1693,2222.6,1690.1,2222.6,1505.1z"/>
	</g>
	<g id="_x33_">
		<path class="st17" d="M2404.8,701.2l-15.1-66.5l-38.2,8.6c-5.7-11.2-12.8-21.4-21.1-30.5l21.1-33.5l-57.7-36.4l-20.3,32.2
			c-13.5-4.7-27.7-7.4-42.4-7.8l-8.9-39.3l-66.5,15.1l8.9,39.3c-12.1,6.2-23.1,14-32.7,23.2l-30.3-19.1l-36.4,57.7l30.3,19.1
			c-4.1,12.6-6.5,25.9-6.8,39.5l-38.2,8.6l15.1,66.5l38.2-8.6c6.6,13.1,15.2,24.8,25.3,34.9l-20.3,32.2l57.7,36.4l21.1-33.5
			c11.7,3.6,24,5.6,36.6,5.9l8.9,39.3l66.5-15.1l-8.9-39.3c12.1-6.2,23.1-14,32.7-23.2l35.3,22.3l36.4-57.7l-35.3-22.3
			c4.1-12.6,6.5-25.9,6.8-39.5L2404.8,701.2z M2245.3,766c-78.4,22.7-113.3-96-35.4-119.5C2288.3,623.8,2323.2,742.5,2245.3,766z"/>
		<path class="st17" d="M2002.9,679l-3.7-16.5l-14.6,3.3c-3.6-11.4-9.2-21.8-16.2-30.8l11-10.1l-11.5-12.4l-11,10.1
			c-8.6-7.9-18.6-14.1-29.4-18.6l4.4-14.3l-16.1-5l-4.4,14.2c-11.2-2.5-22.9-3-34.8-1.3l-3.3-14.6l-16.5,3.7l3.3,14.6
			c-11.4,3.6-21.8,9.2-30.8,16.2l-10.1-11l-12.4,11.5l10.1,11c-7.9,8.6-14.1,18.6-18.6,29.4l-14.3-4.4l-5,16.1l14.2,4.4
			c-2.5,11.2-3,22.9-1.3,34.8l-14.6,3.3l3.7,16.5l14.6-3.3c3.6,11.4,9.2,21.8,16.2,30.8l-11,10.1l11.5,12.4l11-10.1
			c8.6,7.9,18.6,14.1,29.4,18.6l-4.4,14.3l16.1,5l4.4-14.2c11.2,2.5,22.9,3,34.8,1.3l3.3,14.6l16.5-3.7l-3.3-14.6
			c11.4-3.6,21.8-9.2,30.8-16.2l10.1,11l12.4-11.5l-10.1-11c7.9-8.6,14.1-18.6,18.6-29.4l14.3,4.4l5-16.1L1987,717
			c2.5-11.2,3-22.9,1.3-34.8L2002.9,679z M1904.5,758.6c-82.9,17.3-110.7-105.5-28.4-125.6C1958.9,615.7,1986.7,738.6,1904.5,758.6z
			"/>
		<path class="st15" d="M2114.7,452l-5.6-24.9l-19.1,4.3c-1.6-3.7-3.4-7.3-5.6-10.7l14.4-13.3l-17.4-18.8L2067,402
			c-3.2-2.4-6.6-4.6-10.2-6.4l5.8-18.7l-24.4-7.6l-5.8,18.7c-3.9-0.5-8-0.6-12-0.5l-4.3-19.1l-24.9,5.6l4.3,19.1
			c-3.7,1.6-7.3,3.4-10.7,5.6l-13.3-14.4l-18.8,17.4l13.3,14.4c-2.4,3.2-4.6,6.6-6.4,10.2l-18.7-5.8l-7.6,24.4l18.7,5.8
			c-0.5,3.9-0.6,8-0.5,12l-19.1,4.3l5.6,24.9l19.1-4.3c1.6,3.7,3.4,7.3,5.6,10.7l-14.4,13.3l17.4,18.8l14.4-13.3
			c3.2,2.4,6.6,4.6,10.2,6.4l-5.8,18.7l24.4,7.6l5.8-18.7c3.9,0.5,8,0.6,12,0.5l4.3,19.1l24.9-5.6l-4.3-19.1
			c3.7-1.6,7.3-3.4,10.7-5.6l13.3,14.4l18.8-17.4l-13.3-14.4c2.4-3.2,4.6-6.6,6.4-10.2l18.7,5.8l7.6-24.4l-18.7-5.8
			c0.5-3.9,0.6-8,0.5-12L2114.7,452z M2031.5,494.7c-46.4,9.7-61.9-59.1-15.9-70.3C2062,414.7,2077.5,483.4,2031.5,494.7z"/>
	</g>
	<g id="_x32_">
		<path class="st17" d="M1318.1,419.1v115.7c0,19.2-19.4,34.8-43.2,34.8H930.2c-23.9,0-43.2-15.6-43.2-34.8V419.1
			c0-19.2,19.4-34.8,43.2-34.8h344.7C1298.8,384.3,1318.1,399.9,1318.1,419.1z"/>
		<path class="st17" d="M887,534.7c0,19.2,19.4,34.8,43.2,34.8h17.6v49.6l83.3-49.6h243.8c23.9,0,43.2-15.6,43.2-34.8V419.1
			C1155.4,550.1,887,534.7,887,534.7z"/>
		<path class="st18" d="M1160.3,440.8H930.6c-6.6,0-12-4.3-12-9.6c0-5.3,5.4-9.6,12-9.6h229.6C1175.8,421.6,1176,440.8,1160.3,440.8
			z"/>
		<path class="st18" d="M1023.3,486.5h-92.6c-15.6-0.1-15.7-19.2,0-19.3c0,0,92.6,0,92.6,0C1038.9,467.3,1038.9,486.5,1023.3,486.5z
			"/>
		<path class="st18" d="M1274.5,486.5h-195.5c-6.6,0-12-4.3-12-9.6c0-5.3,5.4-9.6,12-9.6h195.5
			C1290.1,467.3,1290.2,486.5,1274.5,486.5z"/>
		<path class="st18" d="M1120,532.3H930.6c-15.6,0-15.7-19.2,0-19.3c0,0,189.4,0,189.4,0C1135.6,513,1135.7,532.2,1120,532.3z"/>
		<path class="st17" d="M1254.8,384.3c-290.6,0-358.1,39-367.8,45.9c-3.6-23.1,11.9-45.7,43.2-45.9
			C930.2,384.3,1254.8,384.3,1254.8,384.3z"/>
	</g>
	<g id="_x31_">
		<path class="st17" d="M2702.1,424.3v132.8c0,22.1,17.9,39.9,39.9,39.9h318.4c22,0,39.9-17.9,39.9-39.9V424.3
			c0-22-17.9-39.9-39.9-39.9H2742C2720,384.4,2702.1,402.3,2702.1,424.3z"/>
		<path class="st17" d="M3100.4,557.1c0,22.1-17.9,39.9-39.9,39.9h-16.3v57l-76.9-57H2742c-22,0-39.9-17.9-39.9-39.9V424.3
			C2852.5,574.6,3100.4,557.1,3100.4,557.1z"/>
		<path class="st18" d="M2848,449.3h212.1c6.1,0,11.1-5,11.1-11.1c0-6.1-5-11.1-11.1-11.1H2848
			C2833.6,427.2,2833.5,449.2,2848,449.3z"/>
		<path class="st18" d="M2974.5,501.7h85.6c14.4-0.1,14.5-22.1,0-22.1c0,0-85.6,0-85.6,0C2960.1,479.7,2960,501.7,2974.5,501.7z"/>
		<path class="st18" d="M2742.5,501.7h180.6c6.1,0,11.1-5,11.1-11.1c0-6.1-5-11.1-11.1-11.1h-180.6
			C2728.1,479.7,2728,501.7,2742.5,501.7z"/>
		<path class="st18" d="M2885.2,554.2h174.9c14.4-0.1,14.5-22.1,0-22.1c0,0-174.9,0-174.9,0C2870.8,532.1,2870.7,554.1,2885.2,554.2
			z"/>
		<path class="st17" d="M2760.7,384.4c268.5,0,330.8,44.8,339.7,52.7c3.3-26.5-11-52.5-39.9-52.7
			C3060.5,384.4,2760.7,384.4,2760.7,384.4z"/>
	</g>
</g>
</svg>
